{"title":"The.Giver.2014.720p.BRRip.x264.AC3-WiNTeaM","uid":11390707,"size":2536737398,"categoryP":"video","categoryS":"hd___movies","magnet":"?xt=urn:btih:12dc9a1e376299678a74096272bf047d4b60ed74&amp;dn=The.Giver.2014.720p.BRRip.x264.AC3-WiNTeaM&amp;tr=udp%3A%2F%2Ftracker.openbittorrent.com%3A80&amp;tr=udp%3A%2F%2Fopen.demonii.com%3A1337&amp;tr=udp%3A%2F%2Ftracker.coppersurfer.tk%3A6969&amp;tr=udp%3A%2F%2Fexodus.desync.com%3A6969","seeders":1,"leechers":0,"uploader":"TvTeam","files":15,"time":1415322931,"description":" &lt;a href=&quot;http://www.torrenting.com&quot; rel=&quot;nofollow&quot; target=&quot;_NEW&quot;&gt;http://www.torrenting.com&lt;/a&gt;\n\nSign up is OPEN - for time being. Come and have fun.\n\n\n------------------------------------------------------------------------\n    __          ___ _   _ _______         __  __ \n             / (_)  | |__   __|       |  /  |\n        /  / / _|  | |  | | ___  __ _|   / |\n       /  / / | | . ` |  | |/ _ / _` | |/| |\n         /  /  | | |  |  | |  __/ (_| | |  | |\n        /  /   |_|_| _|  |_|___|__,_|_|  |_|      \n                                       since 2013\n    _____________________________________________\n    Proudly Presents:\n\nThe.Giver.2014.720p.BRRip.x264.AC3-WiNTeaM\n\nFormat                                   : Matroska\nFormat version                           : Version 4 / Version 2\nFile size                                : 2.34 GiB\nDuration                                 : 1h 37mn\nOverall bit rate                         : 3 440 Kbps\nMovie name                               : The.Giver.2014.720p.BRRip.x264.AC3-WiNTeaM\nEncoded date                             : UTC 2014-11-06 22:15:01\nWriting application                      : mkvmerge v7.3.0 ('Nouages') 64bit built on Oct 22 2014 18:53:34\nWriting library                          : libebml v1.3.0 + libmatroska v1.4.1\nRipped by                                : Micasxuxu@WiNTeaM\nVideo Source                             : The.Giver.2014.1080p.BluRay.x264-SPARKS\n_STATISTICS_WRITING_APP                  : mkvmerge v7.3.0 ('Nouages') 64bit built on Oct 22 2014 18:53:34\n_STATISTICS_WRITING_DATE_UTC             : 2014-11-06 22:15:01\n_STATISTICS_TAGS                         : BPS DURATION NUMBER_OF_FRAMES NUMBER_OF_BYTES\nDURATION                                 : 01:27:21.398000000\nNUMBER_OF_FRAMES                         : 1610\nNUMBER_OF_BYTES                          : 1589253\n\nVideo\nID                                       : 1\nFormat                                   : AVC\nFormat/Info                              : Advanced Video Codec\nFormat profile                           : &lt;a class=&quot;__cf_email__&quot; href=&quot;/cdn-cgi/l/email-protection&quot; data-cfemail=&quot;fbb3929c93bbb7cfd5ca&quot;&gt;[email&amp;#160;protected]&lt;/a&gt;&lt;script cf-hash='f9e31' type=&quot;text/javascript&quot;&gt;\n/* &lt;![CDATA[ */!function(){try{var t=&quot;currentScript&quot;in document?document.currentScript:function(){for(var t=document.getElementsByTagName(&quot;script&quot;),e=t.length;e--;)if(t[e].getAttribute(&quot;cf-hash&quot;))return t[e]}();if(t&amp;&amp;t.previousSibling){var e,r,n,i,c=t.previousSibling,a=c.getAttribute(&quot;data-cfemail&quot;);if(a){for(e=&quot;&quot;,r=parseInt(a.substr(0,2),16),n=2;a.length-n;n+=2)i=parseInt(a.substr(n,2),16)^r,e+=String.fromCharCode(i);e=document.createTextNode(e),c.parentNode.replaceChild(e,c)}}}catch(u){}}();/* ]]&gt; */&lt;/script&gt;\nFormat settings, CABAC                   : Yes\nFormat settings, ReFrames                : 12 frames\nCodec ID                                 : V_MPEG4/ISO/AVC\nDuration                                 : 1h 37mn\nBit rate                                 : 2 995 Kbps\nWidth                                    : 1 280 pixels\nHeight                                   : 534 pixels\nDisplay aspect ratio                     : 2.40:1\nFrame rate mode                          : Constant\nFrame rate                               : 23.976 fps\nColor space                              : YUV\nChroma subsampling                       : 4:2:0\nBit depth                                : 8 bits\nScan type                                : Progressive\nBits/(Pixel*Frame)                       : 0.183\nStream size                              : 1.99 GiB (85%)\nWriting library                          : x264 core 142 r2479 dd79a61\nEncoding settings                        : cabac=1 / ref=12 / deblock=1:-3:-3 / analyse=0x3:0x133 / me=umh / subme=10 / psy=1 / psy_rd=1.00:0.07 / mixed_ref=1 / me_range=64 / chroma_me=1 / trellis=2 / 8x8dct=1 / cqm=0 / deadzone=21,11 / fast_pskip=1 / chroma_qp_offset=-3 / threads=12 / lookahead_threads=3 / sliced_threads=0 / nr=0 / decimate=1 / interlaced=0 / bluray_compat=0 / constrained_intra=0 / bframes=11 / b_pyramid=2 / b_adapt=2 / b_bias=0 / direct=3 / weightb=1 / open_gop=0 / weightp=2 / keyint=240 / keyint_min=23 / scenecut=40 / intra_refresh=0 / rc_lookahead=240 / rc=2pass / mbtree=1 / bitrate=2995 / ratetol=1.0 / qcomp=0.60 / qpmin=0 / qpmax=69 / qpstep=4 / cplxblur=20.0 / qblur=0.5 / vbv_maxrate=40000 / vbv_bufsize=30000 / nal_hrd=none / filler=0 / ip_ratio=1.30 / aq=1:1.00\nDefault                                  : Yes\nForced                                   : No\nColor primaries                          : BT.709\nTransfer characteristics                 : BT.709\nMatrix coefficients                      : BT.709\n\nAudio\nID                                       : 2\nFormat                                   : AC-3\nFormat/Info                              : Audio Coding 3\nMode extension                           : CM (complete main)\nFormat settings, Endianness              : Big\nCodec ID                                 : A_AC3\nDuration                                 : 1h 37mn\nBit rate mode                            : Constant\nBit rate                                 : 448 Kbps\nChannel(s)                               : 6 channels\nChannel positions                        : Front: L C R, Side: L R, LFE\nSampling rate                            : 48.0 KHz\nBit depth                                : 16 bits\nCompression mode                         : Lossy\nStream size                              : 312 MiB (13%)\nLanguage                                 : English\nDefault                                  : Yes\nForced                                   : No\n\nText\nID                                       : 3\nFormat                                   : VobSub\nMuxing mode                              : zlib\nCodec ID                                 : S_VOBSUB\nCodec ID/Info                            : The same subtitle format used on DVDs\nLanguage                                 : English\nDefault                                  : No\nForced                                   : No\n\nMenu\n00:00:00.000                             : en:00:00:00.000\n00:05:51.226                             : en:00:05:51.226\n00:12:35.505                             : en:00:12:35.505\n00:20:55.296                             : en:00:20:55.296\n00:26:11.904                             : en:00:26:11.904\n00:30:35.250                             : en:00:30:35.250\n00:36:26.768                             : en:00:36:26.768\n00:41:24.148                             : en:00:41:24.148\n00:48:36.539                             : en:00:48:36.539\n00:56:21.712                             : en:00:56:21.712\n01:01:04.452                             : en:01:01:04.452\n01:04:58.645                             : en:01:04:58.645\n01:09:59.695                             : en:01:09:59.695\n01:17:07.414                             : en:01:17:07.414\n01:23:15.866                             : en:01:23:15.866\n01:28:02.319                             : en:01:28:02.319\n    ...................................................................\n\n    Ripper Notes.........: Thanks to SPARKS\n\n                           Seed, Share, but don't forget to keep the credits ;) \n                               \n                           Respect our work\n\n    Group Notes..........: We are currently Looking for Portuguese Android Modders.\n                           If you are interested, please contact us @ winteam [@] inbox [dot] com\n\n                           Neste momento procuramos Android Modders Portugueses.\n                           Pedimos aos interessados que nos contactem atraves do mail:  winteam [@] inbox [dot] com\n\n    ...................................................................\n\n    Group Greets.........: FLAWL3SS * ViSiON * D-ZON3 * CHD * DAA\n                           AMIABLE * DIAMOND * FraMeSToR * LEGiON\n                           CORE * KRaLiMaRKo * iNViNCiBLE * SPARKS\n\n    ___________________________________________________________________\n\n                     *** WiNTeaM  / Since 2013 ***","torrent":{"xt":"urn:btih:12dc9a1e376299678a74096272bf047d4b60ed74","amp;dn":"The.Giver.2014.720p.BRRip.x264.AC3-WiNTeaM","amp;tr":["udp%3A%2F%2Ftracker.openbittorrent.com%3A80","udp%3A%2F%2Fopen.demonii.com%3A1337","udp%3A%2F%2Ftracker.coppersurfer.tk%3A6969","udp%3A%2F%2Fexodus.desync.com%3A6969"],"infoHash":"12dc9a1e376299678a74096272bf047d4b60ed74","infoHashBuffer":{"type":"Buffer","data":[18,220,154,30,55,98,153,103,138,116,9,98,114,191,4,125,75,96,237,116]},"announce":[],"urlList":[]}}